<svg width="28" height="28" viewBox="0 0 28 28" fill="none" xmlns="http://www.w3.org/2000/svg">
<path d="M27.0642 0.660054C26.7018 0.329989 26.2645 0.113669 25.7987 0.0341158C25.333 -0.0454379 24.8562 0.0147513 24.4193 0.208278L1.61084 10.2905C1.12307 10.5102 0.707861 10.8872 0.420331 11.3713C0.132801 11.8554 -0.013456 12.4238 0.000973592 13.0011C0.0154032 13.5784 0.189836 14.1372 0.501121 14.6034C0.812406 15.0695 1.24582 15.4211 1.74384 15.6112L6.35748 17.368L8.92902 26.6787C8.96397 26.8031 9.01468 26.9214 9.07969 27.0304C9.08955 27.0471 9.10346 27.0595 9.11395 27.0758C9.18905 27.1905 9.2798 27.2919 9.38304 27.3764C9.4124 27.4009 9.44052 27.4239 9.4719 27.4457C9.59273 27.5334 9.72653 27.5976 9.86738 27.6353L9.88245 27.6367L9.89099 27.6407C9.97567 27.6596 10.0619 27.6692 10.1483 27.6693C10.1566 27.6693 10.164 27.665 10.1722 27.6648C10.3026 27.6623 10.4319 27.6377 10.5554 27.5919C10.5841 27.5812 10.6088 27.5633 10.6367 27.5503C10.7288 27.5085 10.816 27.4549 10.8967 27.3907C10.9612 27.3311 11.0258 27.2716 11.0904 27.2121L14.5295 23.0548L19.6589 27.4053C20.1105 27.7902 20.6664 27.9995 21.2387 28C21.8383 27.9992 22.4195 27.7726 22.8848 27.3584C23.35 26.9441 23.6711 26.3673 23.7941 25.7247L27.9466 3.40617C28.0407 2.90385 28.0083 2.38297 27.8529 1.89926C27.6974 1.41555 27.4248 0.987205 27.0642 0.660054ZM10.6529 17.8117C10.4765 18.0041 10.3558 18.2493 10.3062 18.5166L9.91224 20.6123L8.91435 16.999L14.0883 14.0491L10.6529 17.8117ZM21.2188 25.2022L15.1572 20.061C14.9036 19.8465 14.5855 19.7444 14.2662 19.7752C13.9469 19.806 13.65 19.9673 13.4345 20.2271L12.3331 21.5581L12.7223 19.4868L21.7371 9.61685C21.9522 9.38158 22.0833 9.06971 22.1066 8.73774C22.1299 8.40577 22.0438 8.07565 21.864 7.80718C21.6841 7.5387 21.4224 7.34963 21.1262 7.27421C20.83 7.19878 20.5189 7.24199 20.2493 7.39601L7.3117 14.7711L2.57161 12.8719L25.4533 2.84957L21.2188 25.2022Z" fill="#242424"/>
</svg>
